{
    "asset" : {
        "generator" : "Khronos glTF Blender I/O v3.3.32",
        "version" : "2.0"
    },
    "extensionsUsed" : [
        "KHR_materials_clearcoat"
    ],
    "scene" : 0,
    "scenes" : [
        {
            "name" : "Scene",
            "nodes" : [
                0,
                1,
                3,
                4,
                5
            ]
        }
    ],
    "nodes" : [
        {
            "mesh" : 0,
            "name" : "Cube-col"
        },
        {
            "mesh" : 1,
            "name" : "Cube-col.001",
            "translation" : [
                0,
                0,
                -10.243840217590332
            ]
        },
        {
            "mesh" : 2,
            "name" : "shape-convcolonly",
            "rotation" : [
                0,
                -0.07637791335582733,
                0,
                0.9970789551734924
            ],
            "translation" : [
                -0.3880721926689148,
                0.8877006769180298,
                -2.8104894161224365
            ]
        },
        {
            "children" : [
                2
            ],
            "mesh" : 3,
            "name" : "Monkey",
            "rotation" : [
                0,
                -0.19768305122852325,
                0,
                0.9802659749984741
            ]
        },
        {
            "mesh" : 4,
            "name" : "Plane-col"
        },
        {
            "mesh" : 5,
            "name" : "Ramp-col"
        }
    ],
    "materials" : [
        {
            "doubleSided" : true,
            "extensions" : {
                "KHR_materials_clearcoat" : {
                    "clearcoatFactor" : 1,
                    "clearcoatRoughnessFactor" : 0
                }
            },
            "name" : "Material.002",
            "pbrMetallicRoughness" : {
                "baseColorFactor" : [
                    0.016067946329712868,
                    0.008317848667502403,
                    0.0026539505925029516,
                    1
                ],
                "metallicFactor" : 0,
                "roughnessFactor" : 0
            }
        },
        {
            "doubleSided" : true,
            "name" : "Material.003",
            "pbrMetallicRoughness" : {
                "baseColorFactor" : [
                    0.00225873664021492,
                    0.05811110511422157,
                    0,
                    1
                ],
                "metallicFactor" : 0,
                "roughnessFactor" : 0.06000000238418579
            }
        }
    ],
    "meshes" : [
        {
            "name" : "Cube.002",
            "primitives" : [
                {
                    "attributes" : {
                        "POSITION" : 0,
                        "NORMAL" : 1,
                        "TEXCOORD_0" : 2
                    },
                    "indices" : 3
                }
            ]
        },
        {
            "name" : "Cube.001",
            "primitives" : [
                {
                    "attributes" : {
                        "POSITION" : 4,
                        "NORMAL" : 5,
                        "TEXCOORD_0" : 6
                    },
                    "indices" : 3
                }
            ]
        },
        {
            "name" : "Cube.003",
            "primitives" : [
                {
                    "attributes" : {
                        "POSITION" : 7,
                        "NORMAL" : 8,
                        "TEXCOORD_0" : 9
                    },
                    "indices" : 10
                }
            ]
        },
        {
            "name" : "Suzanne",
            "primitives" : [
                {
                    "attributes" : {
                        "POSITION" : 11,
                        "NORMAL" : 12,
                        "TEXCOORD_0" : 13
                    },
                    "indices" : 14,
                    "material" : 0
                }
            ]
        },
        {
            "name" : "Plane",
            "primitives" : [
                {
                    "attributes" : {
                        "POSITION" : 15,
                        "NORMAL" : 16,
                        "TEXCOORD_0" : 17
                    },
                    "indices" : 18,
                    "material" : 1
                }
            ]
        },
        {
            "name" : "Cube.004",
            "primitives" : [
                {
                    "attributes" : {
                        "POSITION" : 19,
                        "NORMAL" : 20,
                        "TEXCOORD_0" : 21
                    },
                    "indices" : 22
                }
            ]
        }
    ],
    "accessors" : [
        {
            "bufferView" : 0,
            "componentType" : 5126,
            "count" : 24,
            "max" : [
                1.0013866424560547,
                2.007786512374878,
                1.0212187767028809
            ],
            "min" : [
                -0.9986133575439453,
                0.00778651237487793,
                -0.9787811636924744
            ],
            "type" : "VEC3"
        },
        {
            "bufferView" : 1,
            "componentType" : 5126,
            "count" : 24,
            "type" : "VEC3"
        },
        {
            "bufferView" : 2,
            "componentType" : 5126,
            "count" : 24,
            "type" : "VEC2"
        },
        {
            "bufferView" : 3,
            "componentType" : 5123,
            "count" : 36,
            "type" : "SCALAR"
        },
        {
            "bufferView" : 4,
            "componentType" : 5126,
            "count" : 24,
            "max" : [
                7.847830295562744,
                3.7696478366851807,
                1.0212187767028809
            ],
            "min" : [
                -7.826096057891846,
                0.01461928803473711,
                -0.9787811636924744
            ],
            "type" : "VEC3"
        },
        {
            "bufferView" : 5,
            "componentType" : 5126,
            "count" : 24,
            "type" : "VEC3"
        },
        {
            "bufferView" : 6,
            "componentType" : 5126,
            "count" : 24,
            "type" : "VEC2"
        },
        {
            "bufferView" : 7,
            "componentType" : 5126,
            "count" : 24,
            "max" : [
                0.9132124185562134,
                0.9132123589515686,
                0.9132124185562134
            ],
            "min" : [
                -0.9132124185562134,
                -0.9132123589515686,
                -0.9132124185562134
            ],
            "type" : "VEC3"
        },
        {
            "bufferView" : 8,
            "componentType" : 5126,
            "count" : 24,
            "type" : "VEC3"
        },
        {
            "bufferView" : 9,
            "componentType" : 5126,
            "count" : 24,
            "type" : "VEC2"
        },
        {
            "bufferView" : 10,
            "componentType" : 5123,
            "count" : 36,
            "type" : "SCALAR"
        },
        {
            "bufferView" : 11,
            "componentType" : 5126,
            "count" : 7928,
            "max" : [
                0.48757997155189514,
                2.0531980991363525,
                -1.6579827070236206
            ],
            "min" : [
                -1.1882941722869873,
                0.16008855402469635,
                -4.246062755584717
            ],
            "type" : "VEC3"
        },
        {
            "bufferView" : 12,
            "componentType" : 5126,
            "count" : 7928,
            "type" : "VEC3"
        },
        {
            "bufferView" : 13,
            "componentType" : 5126,
            "count" : 7928,
            "type" : "VEC2"
        },
        {
            "bufferView" : 14,
            "componentType" : 5123,
            "count" : 11808,
            "type" : "SCALAR"
        },
        {
            "bufferView" : 15,
            "componentType" : 5126,
            "count" : 4,
            "max" : [
                30.685482025146484,
                0,
                30.685482025146484
            ],
            "min" : [
                -30.685482025146484,
                0,
                -30.685482025146484
            ],
            "type" : "VEC3"
        },
        {
            "bufferView" : 16,
            "componentType" : 5126,
            "count" : 4,
            "type" : "VEC3"
        },
        {
            "bufferView" : 17,
            "componentType" : 5126,
            "count" : 4,
            "type" : "VEC2"
        },
        {
            "bufferView" : 18,
            "componentType" : 5123,
            "count" : 6,
            "type" : "SCALAR"
        },
        {
            "bufferView" : 19,
            "componentType" : 5126,
            "count" : 20,
            "max" : [
                1.0013866424560547,
                2.0070481300354004,
                4.507227897644043
            ],
            "min" : [
                -0.9986133575439453,
                0.007048130035400391,
                2.507228136062622
            ],
            "type" : "VEC3"
        },
        {
            "bufferView" : 20,
            "componentType" : 5126,
            "count" : 20,
            "type" : "VEC3"
        },
        {
            "bufferView" : 21,
            "componentType" : 5126,
            "count" : 20,
            "type" : "VEC2"
        },
        {
            "bufferView" : 22,
            "componentType" : 5123,
            "count" : 24,
            "type" : "SCALAR"
        }
    ],
    "bufferViews" : [
        {
            "buffer" : 0,
            "byteLength" : 288,
            "byteOffset" : 0,
            "target" : 34962
        },
        {
            "buffer" : 0,
            "byteLength" : 288,
            "byteOffset" : 288,
            "target" : 34962
        },
        {
            "buffer" : 0,
            "byteLength" : 192,
            "byteOffset" : 576,
            "target" : 34962
        },
        {
            "buffer" : 0,
            "byteLength" : 72,
            "byteOffset" : 768,
            "target" : 34963
        },
        {
            "buffer" : 0,
            "byteLength" : 288,
            "byteOffset" : 840,
            "target" : 34962
        },
        {
            "buffer" : 0,
            "byteLength" : 288,
            "byteOffset" : 1128,
            "target" : 34962
        },
        {
            "buffer" : 0,
            "byteLength" : 192,
            "byteOffset" : 1416,
            "target" : 34962
        },
        {
            "buffer" : 0,
            "byteLength" : 288,
            "byteOffset" : 1608,
            "target" : 34962
        },
        {
            "buffer" : 0,
            "byteLength" : 288,
            "byteOffset" : 1896,
            "target" : 34962
        },
        {
            "buffer" : 0,
            "byteLength" : 192,
            "byteOffset" : 2184,
            "target" : 34962
        },
        {
            "buffer" : 0,
            "byteLength" : 72,
            "byteOffset" : 2376,
            "target" : 34963
        },
        {
            "buffer" : 0,
            "byteLength" : 95136,
            "byteOffset" : 2448,
            "target" : 34962
        },
        {
            "buffer" : 0,
            "byteLength" : 95136,
            "byteOffset" : 97584,
            "target" : 34962
        },
        {
            "buffer" : 0,
            "byteLength" : 63424,
            "byteOffset" : 192720,
            "target" : 34962
        },
        {
            "buffer" : 0,
            "byteLength" : 23616,
            "byteOffset" : 256144,
            "target" : 34963
        },
        {
            "buffer" : 0,
            "byteLength" : 48,
            "byteOffset" : 279760,
            "target" : 34962
        },
        {
            "buffer" : 0,
            "byteLength" : 48,
            "byteOffset" : 279808,
            "target" : 34962
        },
        {
            "buffer" : 0,
            "byteLength" : 32,
            "byteOffset" : 279856,
            "target" : 34962
        },
        {
            "buffer" : 0,
            "byteLength" : 12,
            "byteOffset" : 279888,
            "target" : 34963
        },
        {
            "buffer" : 0,
            "byteLength" : 240,
            "byteOffset" : 279900,
            "target" : 34962
        },
        {
            "buffer" : 0,
            "byteLength" : 240,
            "byteOffset" : 280140,
            "target" : 34962
        },
        {
            "buffer" : 0,
            "byteLength" : 160,
            "byteOffset" : 280380,
            "target" : 34962
        },
        {
            "buffer" : 0,
            "byteLength" : 48,
            "byteOffset" : 280540,
            "target" : 34963
        }
    ],
    "buffers" : [
        {
            "byteLength" : 280588,
            "uri" : "test_map.bin"
        }
    ]
}
